# File created by Blade
# Date/Time:  Tue Jan 27 18:50:13 2015
#---------------------------------------------------------
:version 1.10
:name HOM
:units
  mass 1.0
  length 1.000000
  angle deg
:documentation
     Acclaim Skeleton File
:root
   axis xyz
   order TX TY TZ RX RY RZ
   position 0.000000 0.000000 0.000000
   orientation 0 0 0
:bonedata
   begin
      id 1
      name Spine_dum
      direction 0.000000 1.000000 0.000000
      length 5.195262
      axis 0.0 0.0 0.0 xyz
   end
   begin
      id 2
      name LeftUpLeg_dum
      direction 1.000000 0.000000 0.000000
      length 3.351363
      axis 0.0 0.0 0.0 xyz
   end
   begin
      id 3
      name RightUpLeg_dum
      direction -1.000000 0.000000 0.000000
      length 3.351363
      axis 0.0 0.0 0.0 xyz
   end
   begin
      id 4
      name Spine
      direction 0.000000 1.000000 0.000000
      length 0.000000
      axis 0.0 0.0 0.0 xyz
      dof rx ry rz
   end
   begin
      id 5
      name Spine_dum1
      direction 0.000000 1.000000 0.000000
      length 15.653875
      axis 0.0 0.0 0.0 xyz
   end
   begin
      id 6
      name Spine_dum2
      direction 0.000000 1.000000 0.000000
      length 10.329768
      axis 0.0 0.0 0.0 xyz
   end
   begin
      id 7
      name Spine_dum3
      direction 0.000000 1.000000 0.000000
      length 10.329768
      axis 0.0 0.0 0.0 xyz
   end
   begin
      id 8
      name Head
      direction 0.000000 1.000000 0.000000
      length 4.527550
      axis 0.0 0.0 0.0 xyz
      dof rx ry rz
   end
   begin
      id 9
      name LeftShoulder
      direction 1.000000 0.000000 0.000000
      length 6.996006
      axis 0.0 0.0 -90.0 xyz
      dof rx ry rz
   end
   begin
      id 10
      name LeftArm
      direction 1.000000 0.000000 0.000000
      length 10.209302
      axis 0.0 0.0 -90.0 xyz
      dof rx ry rz
   end
   begin
      id 11
      name LeftForeArm
      direction 1.000000 0.000000 0.000000
      length 8.563163
      axis 0.0 0.0 -90.0 xyz
      dof ry rz rx
   end
   begin
      id 12
      name LeftHand
      direction 0.000000 0.000000 0.000000
      length 0.000000
      axis 0.0 0.0 -90.0 xyz
      dof rx ry rz
   end
   begin
      id 13
      name LeftHand_dum1
      direction 0.000000 0.000000 0.000000
      length 0.000000
      axis 0.0 0.0 -90.0 xyz
   end
   begin
      id 14
      name LeftHand_dum2
      direction 1.000000 0.000000 0.000000
      length 3.937000
      axis 0.0 0.0 -90.0 xyz
   end
   begin
      id 15
      name LeftHandThumb1
      direction 0.000000 0.000000 1.000000
      length 3.937000
      axis 0.0 0.0 -90.0 xyz
      dof rx rz ry
   end
   begin
      id 16
      name RightShoulder
      direction -1.000000 0.000000 0.000000
      length 6.996006
      axis 0.0 0.0 90.0 xyz
      dof rx ry rz
   end
   begin
      id 17
      name RightArm
      direction -1.000000 0.000000 0.000000
      length 10.209302
      axis 0.0 0.0 90.0 xyz
      dof rx ry rz
   end
   begin
      id 18
      name RightForeArm
      direction -1.000000 0.000000 0.000000
      length 8.563163
      axis 0.0 0.0 90.0 xyz
      dof ry rz rx
   end
   begin
      id 19
      name RightHand
      direction 0.000000 0.000000 0.000000
      length 0.000000
      axis 0.0 0.0 90.0 xyz
      dof rx ry rz
   end
   begin
      id 20
      name RightHand_dum1
      direction 0.000000 0.000000 0.000000
      length 0.000000
      axis 0.0 0.0 90.0 xyz
   end
   begin
      id 21
      name RightHand_dum2
      direction -1.000000 0.000000 0.000000
      length 3.937000
      axis 0.0 0.0 90.0 xyz
   end
   begin
      id 22
      name RightHandThumb1
      direction 0.000000 0.000000 1.000000
      length 3.937000
      axis 0.0 0.0 90.0 xyz
      dof rx rz ry
   end
   begin
      id 23
      name LeftUpLeg
      direction 0.000000 -1.000000 0.000000
      length 16.346831
      axis 0.0 0.0 0.0 xyz
      dof rx ry rz
   end
   begin
      id 24
      name LeftLeg
      direction 0.000000 -1.000000 0.000000
      length 13.959795
      axis 0.0 0.0 0.0 xyz
      dof rx ry rz
   end
   begin
      id 25
      name LeftFoot
      direction 0.000000 -0.258819 0.965926
      length 5.165550
      axis 15.0 0.0 0.0 xyz
      dof rx ry rz
   end
   begin
      id 26
      name LeftToeBase
      direction 0.000000 0.000000 1.000000
      length 2.952750
      axis 0.0 0.0 0.0 xyz
      dof rx ry rz
   end
   begin
      id 27
      name RightUpLeg
      direction 0.000000 -1.000000 0.000000
      length 16.346831
      axis 0.0 0.0 0.0 xyz
      dof rx ry rz
   end
   begin
      id 28
      name RightLeg
      direction 0.000000 -1.000000 0.000000
      length 13.959795
      axis 0.0 0.0 0.0 xyz
      dof rx ry rz
   end
   begin
      id 29
      name RightFoot
      direction 0.000000 -0.258819 0.965926
      length 5.165550
      axis 15.0 0.0 0.0 xyz
      dof rx ry rz
   end
   begin
      id 30
      name RightToeBase
      direction 0.000000 0.000000 1.000000
      length 2.952750
      axis 0.0 0.0 0.0 xyz
      dof rx ry rz
   end
:hierarchy
   begin
      root Spine_dum LeftUpLeg_dum RightUpLeg_dum
      Spine_dum Spine
      LeftUpLeg_dum LeftUpLeg
      RightUpLeg_dum RightUpLeg
      Spine Spine_dum1 Spine_dum2 Spine_dum3
      Spine_dum1 Head
      Spine_dum2 LeftShoulder
      Spine_dum3 RightShoulder
      LeftShoulder LeftArm
      LeftArm LeftForeArm
      LeftForeArm LeftHand
      LeftHand LeftHand_dum1 LeftHand_dum2
      LeftHand_dum1 LeftHandThumb1
      RightShoulder RightArm
      RightArm RightForeArm
      RightForeArm RightHand
      RightHand RightHand_dum1 RightHand_dum2
      RightHand_dum1 RightHandThumb1
      LeftUpLeg LeftLeg
      LeftLeg LeftFoot
      LeftFoot LeftToeBase
      RightUpLeg RightLeg
      RightLeg RightFoot
      RightFoot RightToeBase
   end

# File created by Blade
# Date/Time:  Tue Jan 27 18:50:05 2015
# Frame Rate: 120.000 fps
#------------------------------------------------------
:FULLY-SPECIFIED
:DEGREES
112
root -3.475989 31.853632 -7.194891 -0.962278 9.609542 -4.399113
Spine 6.740362 -6.253518 2.344743
Head -0.410296 -1.189304 4.764784
LeftShoulder -16.228572 16.511062 16.427727
LeftArm 11.931992 -38.524854 -60.321375
LeftForeArm -22.363109 -0.000000 81.127322
LeftHand -10.882234 -0.000000 8.102854
LeftHandThumb1 -26.253704 0.000000 33.147579
RightShoulder -12.477575 -1.954223 -11.705819
RightArm 9.540801 -22.463762 80.683897
RightForeArm -23.698460 -0.000000 18.654852
RightHand -14.712926 -0.000000 11.654706
RightHandThumb1 -24.326973 -0.000000 -32.862282
LeftUpLeg -7.207170 2.691113 -2.924667
LeftLeg 19.760722 -0.000000 -0.000000
LeftFoot -25.852036 23.783553 -16.976025
LeftToeBase 10.469802 -0.000000 -0.000000
RightUpLeg -70.270091 -11.030700 5.630664
RightLeg 84.507535 -0.000000 -0.000000
RightFoot -4.327705 -15.527065 14.422151
RightToeBase 4.772005 -0.000000 -0.000000
113
root -3.469873 31.862265 -7.219049 -0.905074 9.778758 -4.518498
Spine 6.774028 -6.228409 2.464076
Head -0.545320 -1.234860 4.786433
LeftShoulder -16.190406 16.446900 16.461137
LeftArm 11.917426 -38.474227 -60.337411
LeftForeArm -22.443586 -0.000000 81.250386
LeftHand -10.940583 -0.000000 8.172564
LeftHandThumb1 -26.253704 0.000000 33.147579
RightShoulder -12.398575 -1.915903 -11.782885
RightArm 9.782764 -22.540272 80.334802
RightForeArm -23.613129 -0.000000 18.556659
RightHand -14.749452 -0.000000 11.616983
RightHandThumb1 -24.326973 -0.000000 -32.862282
LeftUpLeg -7.333447 2.698646 -2.830692
LeftLeg 19.745223 -0.000000 -0.000000
LeftFoot -25.724816 23.674938 -16.851379
LeftToeBase 10.521851 -0.000000 -0.000000
RightUpLeg -71.564436 -11.295437 6.078960
RightLeg 85.283322 -0.000000 -0.000000
RightFoot -4.411819 -15.863738 14.682858
RightToeBase 4.733794 -0.000000 -0.000000
114
root -3.463459 31.870414 -7.242739 -0.859730 9.943333 -4.619233
Spine 6.821636 -6.200443 2.560858
Head -0.693016 -1.268703 4.824453
LeftShoulder -16.127481 16.397358 16.495676
LeftArm 11.870149 -38.448150 -60.322037
LeftForeArm -22.545284 -0.000000 81.381698
LeftHand -10.994348 0.000000 8.085153
LeftHandThumb1 -26.253704 0.000000 33.147579
RightShoulder -12.298941 -1.840311 -11.861445
RightArm 10.021852 -22.702849 79.964553
RightForeArm -23.484471 -0.000000 18.435206
RightHand -14.703088 -0.000000 11.570684
RightHandThumb1 -24.326973 -0.000000 -32.862282
LeftUpLeg -7.440633 2.741431 -2.752002
LeftLeg 19.721459 -0.000000 -0.000000
LeftFoot -25.595527 23.513111 -16.722819
LeftToeBase 10.438209 -0.000000 -0.000000
RightUpLeg -72.859992 -11.559145 6.522194
RightLeg 86.090583 -0.000000 -0.000000
RightFoot -4.422488 -16.185218 14.942213
RightToeBase 4.628524 -0.000000 -0.000000
115
root -3.454294 31.878413 -7.265828 -0.797944 10.077196 -4.685817
Spine 6.850702 -6.124836 2.627649
Head -0.825757 -1.369250 4.886768
LeftShoulder -16.057369 16.363919 16.526672
LeftArm 11.840240 -38.423695 -60.299043
LeftForeArm -22.676941 -0.000000 81.493372
LeftHand -11.088651 0.000000 8.114959
LeftHandThumb1 -26.253704 0.000000 33.147579
RightShoulder -12.206979 -1.779564 -11.924955
RightArm 10.259315 -22.828691 79.576315
RightForeArm -23.481823 -0.000000 18.350206
RightHand -14.681341 0.000000 11.626748
RightHandThumb1 -24.326973 -0.000000 -32.862282
LeftUpLeg -7.515047 2.685153 -2.714959
LeftLeg 19.614588 -0.000000 -0.000000
LeftFoot -25.465966 23.517324 -16.644057
LeftToeBase 10.475619 -0.000000 -0.000000
RightUpLeg -74.169266 -11.773796 6.913285
RightLeg 86.909235 -0.000000 -0.000000
RightFoot -4.401366 -16.379685 15.254745
RightToeBase 4.840777 -0.000000 -0.000000
116
root -3.444382 31.885597 -7.288241 -0.771081 10.216683 -4.766055
Spine 6.919963 -6.059343 2.708661
Head -0.960532 -1.418760 4.954999
LeftShoulder -16.017479 16.375405 16.535588
LeftArm 11.897222 -38.386260 -60.319170
LeftForeArm -22.821216 -0.000000 81.593772
LeftHand -11.116752 0.000000 8.120231
LeftHandThumb1 -26.253704 0.000000 33.147579
RightShoulder -12.131098 -1.657247 -12.001654
RightArm 10.536448 -23.091026 79.159516
RightForeArm -23.343265 -0.000000 18.158732
RightHand -14.648789 -0.000000 11.634980
RightHandThumb1 -24.326973 -0.000000 -32.862282
LeftUpLeg -7.586805 2.723372 -2.665087
LeftLeg 19.574979 -0.000000 -0.000000
LeftFoot -25.349000 23.408127 -16.535578
LeftToeBase 10.457927 -0.000000 -0.000000
RightUpLeg -75.436561 -11.976272 7.291176
RightLeg 87.734904 -0.000000 -0.000000
RightFoot -4.315335 -16.506009 15.554051
RightToeBase 4.858924 -0.000000 -0.000000
